<?xml version="1.0" encoding="UTF-8"?>
<!DOCTYPE svg PUBLIC "-//W3C//DTD SVG 1.1//EN" "http://www.w3.org/Graphics/SVG/1.1/DTD/svg11.dtd">
<svg xmlns="http://www.w3.org/2000/svg" version="1.1" width="300px" height="300px" style="shape-rendering:geometricPrecision; text-rendering:geometricPrecision; image-rendering:optimizeQuality; fill-rule:evenodd; clip-rule:evenodd" xmlns:xlink="http://www.w3.org/1999/xlink">
<g><path style="opacity:1" fill="#96959a" d="M -0.5,-0.5 C 24.8333,-0.5 50.1667,-0.5 75.5,-0.5C 74.8333,0.166667 74.1667,0.833333 73.5,1.5C 69.9368,2.28239 66.6035,3.61572 63.5,5.5C 62.1266,5.34332 60.7932,5.50999 59.5,6C 55.5706,8.78705 51.5706,11.2871 47.5,13.5C 46.4206,15.543 44.754,16.8763 42.5,17.5C 35.0097,19.9937 29.343,24.6603 25.5,31.5C 25.1667,31.5 24.8333,31.5 24.5,31.5C 20.3823,33.3903 17.3823,36.3903 15.5,40.5C 12.8784,42.7819 10.2117,45.1152 7.5,47.5C 4.52107,49.8123 1.8544,52.4789 -0.5,55.5C -0.5,36.8333 -0.5,18.1667 -0.5,-0.5 Z"/></g>
<g><path style="opacity:1" fill="#463f46" d="M 222.5,-0.5 C 238.167,-0.5 253.833,-0.5 269.5,-0.5C 271.244,1.7504 273.244,3.91706 275.5,6C 280.723,8.5573 285.39,11.8906 289.5,16C 292.385,20.0483 295.718,23.5483 299.5,26.5C 299.5,35.1667 299.5,43.8333 299.5,52.5C 292.276,51.6543 285.442,49.6543 279,46.5C 277.2,48.1447 275.2,49.478 273,50.5C 272.125,51.8732 271.625,53.3732 271.5,55C 273.706,58.2326 275.539,61.7326 277,65.5C 281.011,67.1745 283.011,70.1745 283,74.5C 284.333,75.8333 285.667,77.1667 287,78.5C 290.73,87.2739 294.064,96.2739 297,105.5C 297.417,106.756 298.25,107.423 299.5,107.5C 299.5,149.833 299.5,192.167 299.5,234.5C 295.421,236.408 292.088,239.242 289.5,243C 285.213,244.71 280.88,246.21 276.5,247.5C 286.642,218.428 287.142,189.095 278,159.5C 272.909,149.449 266.743,140.283 259.5,132C 257.46,132.946 255.293,134.113 253,135.5C 252.333,138.167 252.333,140.833 253,143.5C 256.182,146.299 258.516,149.632 260,153.5C 260.749,154.635 260.583,155.635 259.5,156.5C 252.578,153.703 246.244,149.869 240.5,145C 236.087,140.153 231.754,135.32 227.5,130.5C 227.08,128.906 226.414,127.406 225.5,126C 225.96,124.699 226.294,123.366 226.5,122C 229.106,118.638 231.606,115.138 234,111.5C 238.69,99.3622 234.857,95.0289 222.5,98.5C 211.223,116.092 204.723,135.426 203,156.5C 202.279,165.861 202.446,175.194 203.5,184.5C 197.906,184.053 192.74,182.386 188,179.5C 188.749,175.23 189.082,170.896 189,166.5C 188.06,163.558 186.06,162.225 183,162.5C 180.966,162.354 179.299,163.02 178,164.5C 177.243,168.439 175.743,172.106 173.5,175.5C 172.528,179.467 171.695,183.467 171,187.5C 169.612,188.554 168.112,188.72 166.5,188C 155.255,173.566 149.588,157.066 149.5,138.5C 150.897,132.929 151.564,127.262 151.5,121.5C 151.063,119.926 150.063,118.759 148.5,118C 144.664,117.694 140.997,117.528 137.5,117.5C 139.759,101.052 145.926,86.3857 156,73.5C 156.49,72.2068 156.657,70.8734 156.5,69.5C 158.308,68.0821 158.975,66.0821 158.5,63.5C 180.167,63.5 201.833,63.5 223.5,63.5C 223.629,42.1568 223.296,20.8235 222.5,-0.5 Z"/></g>
<g><path style="opacity:1" fill="#453e46" d="M 140.5,-0.5 C 152.167,-0.5 163.833,-0.5 175.5,-0.5C 174.193,0.801633 174.193,2.13497 175.5,3.5C 174.372,4.26209 173.205,4.92876 172,5.5C 172.592,9.10729 171.759,9.27396 169.5,6C 163.098,3.57033 156.432,2.90366 149.5,4C 147.842,5.66253 145.842,6.49586 143.5,6.5C 143.5,7.5 143.5,8.5 143.5,9.5C 141.344,11.841 138.844,13.841 136,15.5C 133.496,18.5039 131.496,21.8372 130,25.5C 129.539,30.1841 129.705,34.8507 130.5,39.5C 132.179,39.2852 133.179,39.9519 133.5,41.5C 135.535,42.9795 137.535,44.6461 139.5,46.5C 140.689,47.4287 142.022,47.762 143.5,47.5C 143.626,52.3257 143.793,56.9924 144,61.5C 147.854,57.3294 152.354,56.4961 157.5,59C 158.38,60.3561 158.714,61.8561 158.5,63.5C 158.975,66.0821 158.308,68.0821 156.5,69.5C 158.506,62.0193 155.839,58.8526 148.5,60C 145.996,62.0048 143.663,64.1715 141.5,66.5C 137.185,70.4725 135.019,75.4725 135,81.5C 131.691,85.7866 129.191,90.4533 127.5,95.5C 126.127,95.3433 124.793,95.51 123.5,96C 111.416,104.697 99.0825,112.864 86.5,120.5C 80.586,129.001 73.7526,136.668 66,143.5C 65.0467,145.455 63.7134,147.122 62,148.5C 61.5172,149.448 61.3505,150.448 61.5,151.5C 60.5,151.5 59.5,151.5 58.5,151.5C 56.3748,157.563 54.3748,163.563 52.5,169.5C 51.735,170.66 50.735,171.66 49.5,172.5C 42.693,163.755 39.0264,153.755 38.5,142.5C 40.0796,130.691 42.4129,119.024 45.5,107.5C 43.7772,103.609 40.9439,100.943 37,99.5C 36.3333,97.8333 36.3333,96.1667 37,94.5C 38.586,93.624 40.086,92.624 41.5,91.5C 43.4674,87.703 45.6341,84.0364 48,80.5C 55.1888,74.3096 62.0221,67.8096 68.5,61C 77.7653,57.3054 86.7653,53.1388 95.5,48.5C 96.5,47.1667 97.5,45.8333 98.5,44.5C 98.0233,43.5224 97.3567,42.6891 96.5,42C 97.9348,39.7328 97.6015,37.7328 95.5,36C 85.1599,38.1725 76.1599,43.0058 68.5,50.5C 54.3159,58.5153 42.4826,69.182 33,82.5C 29.5619,92.0397 24.5619,100.706 18,108.5C 16.0383,117.135 14.5383,125.802 13.5,134.5C 13.6667,137.5 13.8333,140.5 14,143.5C 17.186,147.703 21.0194,148.37 25.5,145.5C 26.086,145.709 26.586,146.043 27,146.5C 27.8565,153.042 29.5231,159.375 32,165.5C 37.3592,174.232 42.6926,182.899 48,191.5C 48.3333,196.167 48.6667,200.833 49,205.5C 49.2784,206.416 49.7784,207.082 50.5,207.5C 53.7112,212.589 56.3778,217.922 58.5,223.5C 60.5922,223.561 62.0922,224.561 63,226.5C 63.2387,227.788 62.7387,228.788 61.5,229.5C 38.584,229.109 21.2507,219.109 9.5,199.5C 4.49374,192.159 1.1604,184.159 -0.5,175.5C -0.5,144.167 -0.5,112.833 -0.5,81.5C 5.06723,74.7126 9.90056,67.3793 14,59.5C 22.2438,50.2594 30.7438,41.426 39.5,33C 46.0703,29.2159 52.7369,25.7159 59.5,22.5C 83.7346,9.18237 109.735,2.18237 137.5,1.5C 138.5,0.833333 139.5,0.166667 140.5,-0.5 Z"/></g>
<g><path style="opacity:1" fill="#6e6e6e" d="M 294.5,-0.5 C 296.167,-0.5 297.833,-0.5 299.5,-0.5C 299.5,1.16667 299.5,2.83333 299.5,4.5C 296.833,3.83333 295.167,2.16667 294.5,-0.5 Z"/></g>
<g><path style="opacity:1" fill="#252327" d="M 137.5,1.5 C 109.735,2.18237 83.7346,9.18237 59.5,22.5C 59.9528,21.5416 60.6195,20.7083 61.5,20C 85.0291,7.10783 110.362,0.941167 137.5,1.5 Z"/></g>
<g><path style="opacity:1" fill="#0c0b0f" d="M 75.5,-0.5 C 97.1667,-0.5 118.833,-0.5 140.5,-0.5C 139.5,0.166667 138.5,0.833333 137.5,1.5C 110.362,0.941167 85.0291,7.10783 61.5,20C 60.6195,20.7083 59.9528,21.5416 59.5,22.5C 52.7369,25.7159 46.0703,29.2159 39.5,33C 30.7438,41.426 22.2438,50.2594 14,59.5C 9.90056,67.3793 5.06723,74.7126 -0.5,81.5C -0.5,73.5 -0.5,65.5 -0.5,57.5C 2.63634,54.571 5.303,51.2377 7.5,47.5C 10.2117,45.1152 12.8784,42.7819 15.5,40.5C 16.2389,40.631 16.9056,40.4643 17.5,40C 19.7221,37.0438 22.0554,34.2105 24.5,31.5C 24.8333,31.5 25.1667,31.5 25.5,31.5C 31.113,27.8889 36.4464,23.8889 41.5,19.5C 44.1161,18.5202 46.4494,17.0202 48.5,15C 52.0571,14.4024 55.5571,13.569 59,12.5C 60.8114,10.0219 62.9781,7.85523 65.5,6C 68.6844,5.24579 71.3511,3.74579 73.5,1.5C 74.1667,0.833333 74.8333,0.166667 75.5,-0.5 Z"/></g>
<g><path style="opacity:1" fill="#08060a" d="M 269.5,-0.5 C 277.833,-0.5 286.167,-0.5 294.5,-0.5C 295.167,2.16667 296.833,3.83333 299.5,4.5C 299.5,11.8333 299.5,19.1667 299.5,26.5C 295.718,23.5483 292.385,20.0483 289.5,16C 285.39,11.8906 280.723,8.5573 275.5,6C 273.244,3.91706 271.244,1.7504 269.5,-0.5 Z"/></g>
<g><path style="opacity:1" fill="#857886" d="M 151.5,7.5 C 154.85,7.33499 158.183,7.50166 161.5,8C 163.309,10.2379 165.642,11.4046 168.5,11.5C 171.125,18.1212 170.959,24.7879 168,31.5C 163.723,32.9657 159.557,34.799 155.5,37C 154.177,37.8159 153.511,38.9826 153.5,40.5C 150.777,42.573 147.61,43.573 144,43.5C 140.408,43.2261 136.908,42.5594 133.5,41.5C 133.179,39.9519 132.179,39.2852 130.5,39.5C 129.705,34.8507 129.539,30.1841 130,25.5C 131.496,21.8372 133.496,18.5039 136,15.5C 138.844,13.841 141.344,11.841 143.5,9.5C 146.112,8.6295 148.779,7.96283 151.5,7.5 Z"/></g>
<g><path style="opacity:1" fill="#5e5d62" d="M 63.5,5.5 C 58.9572,9.47638 53.6239,12.143 47.5,13.5C 51.5706,11.2871 55.5706,8.78705 59.5,6C 60.7932,5.50999 62.1266,5.34332 63.5,5.5 Z"/></g>
<g><path style="opacity:1" fill="#242328" d="M 73.5,1.5 C 71.3511,3.74579 68.6844,5.24579 65.5,6C 62.9781,7.85523 60.8114,10.0219 59,12.5C 55.5571,13.569 52.0571,14.4024 48.5,15C 46.4494,17.0202 44.1161,18.5202 41.5,19.5C 41.8333,18.8333 42.1667,18.1667 42.5,17.5C 44.754,16.8763 46.4206,15.543 47.5,13.5C 53.6239,12.143 58.9572,9.47638 63.5,5.5C 66.6035,3.61572 69.9368,2.28239 73.5,1.5 Z"/></g>
<g><path style="opacity:1" fill="#776a78" d="M 151.5,7.5 C 157.167,5.97479 162.834,6.30812 168.5,8.5C 176.999,21.393 174.332,31.5597 160.5,39C 158.26,39.977 155.927,40.477 153.5,40.5C 153.511,38.9826 154.177,37.8159 155.5,37C 159.557,34.799 163.723,32.9657 168,31.5C 170.959,24.7879 171.125,18.1212 168.5,11.5C 165.642,11.4046 163.309,10.2379 161.5,8C 158.183,7.50166 154.85,7.33499 151.5,7.5 Z"/></g>
<g><path style="opacity:1" fill="#515055" d="M 42.5,17.5 C 42.1667,18.1667 41.8333,18.8333 41.5,19.5C 36.4464,23.8889 31.113,27.8889 25.5,31.5C 29.343,24.6603 35.0097,19.9937 42.5,17.5 Z"/></g>
<g><path style="opacity:1" fill="#4a3f4b" d="M 175.5,-0.5 C 191.167,-0.5 206.833,-0.5 222.5,-0.5C 223.296,20.8235 223.629,42.1568 223.5,63.5C 201.833,63.5 180.167,63.5 158.5,63.5C 158.714,61.8561 158.38,60.3561 157.5,59C 152.354,56.4961 147.854,57.3294 144,61.5C 143.793,56.9924 143.626,52.3257 143.5,47.5C 142.022,47.762 140.689,47.4287 139.5,46.5C 137.535,44.6461 135.535,42.9795 133.5,41.5C 136.908,42.5594 140.408,43.2261 144,43.5C 147.61,43.573 150.777,42.573 153.5,40.5C 155.927,40.477 158.26,39.977 160.5,39C 174.332,31.5597 176.999,21.393 168.5,8.5C 162.834,6.30812 157.167,5.97479 151.5,7.5C 148.779,7.96283 146.112,8.6295 143.5,9.5C 143.5,8.5 143.5,7.5 143.5,6.5C 145.842,6.49586 147.842,5.66253 149.5,4C 156.432,2.90366 163.098,3.57033 169.5,6C 171.759,9.27396 172.592,9.10729 172,5.5C 173.205,4.92876 174.372,4.26209 175.5,3.5C 174.193,2.13497 174.193,0.801633 175.5,-0.5 Z"/></g>
<g><path style="opacity:1" fill="#766c77" d="M 191.5,27.5 C 197.256,26.2543 199.923,28.5876 199.5,34.5C 198.825,37.1778 198.158,39.8445 197.5,42.5C 189.439,43.2709 185.939,39.6042 187,31.5C 187.907,29.3909 189.407,28.0576 191.5,27.5 Z"/></g>
<g><path style="opacity:1" fill="#36353a" d="M 24.5,31.5 C 22.0554,34.2105 19.7221,37.0438 17.5,40C 16.9056,40.4643 16.2389,40.631 15.5,40.5C 17.3823,36.3903 20.3823,33.3903 24.5,31.5 Z"/></g>
<g><path style="opacity:1" fill="#393239" d="M 299.5,52.5 C 299.5,70.8333 299.5,89.1667 299.5,107.5C 298.25,107.423 297.417,106.756 297,105.5C 294.064,96.2739 290.73,87.2739 287,78.5C 285.667,77.1667 284.333,75.8333 283,74.5C 283.011,70.1745 281.011,67.1745 277,65.5C 275.539,61.7326 273.706,58.2326 271.5,55C 271.625,53.3732 272.125,51.8732 273,50.5C 275.2,49.478 277.2,48.1447 279,46.5C 285.442,49.6543 292.276,51.6543 299.5,52.5 Z"/></g>
<g><path style="opacity:1" fill="#656469" d="M 7.5,47.5 C 5.303,51.2377 2.63634,54.571 -0.5,57.5C -0.5,56.8333 -0.5,56.1667 -0.5,55.5C 1.8544,52.4789 4.52107,49.8123 7.5,47.5 Z"/></g>
<g><path style="opacity:1" fill="#251f26" d="M 141.5,66.5 C 137.915,79.1666 132.582,90.9999 125.5,102C 126.631,106.891 127.297,111.724 127.5,116.5C 126.19,119.561 123.857,120.894 120.5,120.5C 119.726,121.147 118.726,121.48 117.5,121.5C 115.246,121.069 113.079,120.403 111,119.5C 108.218,120.472 105.385,121.305 102.5,122C 100.092,123.622 97.9258,125.455 96,127.5C 95.8333,128.5 95.6667,129.5 95.5,130.5C 95.6399,132.03 96.3065,133.03 97.5,133.5C 97.5,133.833 97.5,134.167 97.5,134.5C 92.775,136.342 89.1083,139.342 86.5,143.5C 85.5041,143.414 84.6708,143.748 84,144.5C 80.8604,148.947 77.6937,153.281 74.5,157.5C 72.8899,161.1 70.8899,164.434 68.5,167.5C 68.152,165.287 67.3187,163.287 66,161.5C 65.6924,162.308 65.1924,162.975 64.5,163.5C 61.3473,160.762 58.514,161.095 56,164.5C 55.0997,167.718 53.933,170.718 52.5,173.5C 52.5,172.167 52.5,170.833 52.5,169.5C 54.3748,163.563 56.3748,157.563 58.5,151.5C 59.5,151.5 60.5,151.5 61.5,151.5C 61.3505,150.448 61.5172,149.448 62,148.5C 63.7134,147.122 65.0467,145.455 66,143.5C 73.7526,136.668 80.586,129.001 86.5,120.5C 99.0825,112.864 111.416,104.697 123.5,96C 124.793,95.51 126.127,95.3433 127.5,95.5C 129.191,90.4533 131.691,85.7866 135,81.5C 135.019,75.4725 137.185,70.4725 141.5,66.5 Z"/></g>
<g><path style="opacity:1" fill="#322b32" d="M 52.5,169.5 C 52.5,170.833 52.5,172.167 52.5,173.5C 51.1995,174.882 50.3661,176.548 50,178.5C 49.2747,188.194 49.4414,197.86 50.5,207.5C 49.7784,207.082 49.2784,206.416 49,205.5C 48.6667,200.833 48.3333,196.167 48,191.5C 42.6926,182.899 37.3592,174.232 32,165.5C 29.5231,159.375 27.8565,153.042 27,146.5C 26.586,146.043 26.086,145.709 25.5,145.5C 21.0194,148.37 17.186,147.703 14,143.5C 13.8333,140.5 13.6667,137.5 13.5,134.5C 14.5383,125.802 16.0383,117.135 18,108.5C 24.5619,100.706 29.5619,92.0397 33,82.5C 42.4826,69.182 54.3159,58.5153 68.5,50.5C 76.1599,43.0058 85.1599,38.1725 95.5,36C 97.6015,37.7328 97.9348,39.7328 96.5,42C 97.3567,42.6891 98.0233,43.5224 98.5,44.5C 97.5,45.8333 96.5,47.1667 95.5,48.5C 86.7653,53.1388 77.7653,57.3054 68.5,61C 62.0221,67.8096 55.1888,74.3096 48,80.5C 45.6341,84.0364 43.4674,87.703 41.5,91.5C 40.086,92.624 38.586,93.624 37,94.5C 36.3333,96.1667 36.3333,97.8333 37,99.5C 40.9439,100.943 43.7772,103.609 45.5,107.5C 42.4129,119.024 40.0796,130.691 38.5,142.5C 39.0264,153.755 42.693,163.755 49.5,172.5C 50.735,171.66 51.735,170.66 52.5,169.5 Z"/></g>
<g><path style="opacity:1" fill="#363136" d="M 156.5,69.5 C 156.657,70.8734 156.49,72.2068 156,73.5C 145.926,86.3857 139.759,101.052 137.5,117.5C 140.997,117.528 144.664,117.694 148.5,118C 150.063,118.759 151.063,119.926 151.5,121.5C 149.325,121.318 147.325,120.651 145.5,119.5C 142.715,120.059 140.382,121.392 138.5,123.5C 137.414,130.107 136.748,136.774 136.5,143.5C 135.5,143.5 134.5,143.5 133.5,143.5C 133.797,136.442 133.464,129.442 132.5,122.5C 133.213,120.224 133.713,117.891 134,115.5C 138.596,102.514 143.929,89.8473 150,77.5C 152.439,74.9141 154.605,72.2474 156.5,69.5 Z"/></g>
<g><path style="opacity:1" fill="#514d53" d="M 120.5,120.5 C 118.833,120.5 117.167,120.5 115.5,120.5C 115.5,119.167 115.5,117.833 115.5,116.5C 117.167,116.5 118.833,116.5 120.5,116.5C 120.5,117.833 120.5,119.167 120.5,120.5 Z"/></g>
<g><path style="opacity:1" fill="#1b171c" d="M 156.5,69.5 C 154.605,72.2474 152.439,74.9141 150,77.5C 143.929,89.8473 138.596,102.514 134,115.5C 133.713,117.891 133.213,120.224 132.5,122.5C 133.464,129.442 133.797,136.442 133.5,143.5C 134.5,143.5 135.5,143.5 136.5,143.5C 136.748,136.774 137.414,130.107 138.5,123.5C 140.382,121.392 142.715,120.059 145.5,119.5C 147.325,120.651 149.325,121.318 151.5,121.5C 151.564,127.262 150.897,132.929 149.5,138.5C 149.105,149.349 148.772,160.349 148.5,171.5C 147.914,171.291 147.414,170.957 147,170.5C 146.209,167.041 145.209,163.707 144,160.5C 142.921,162.394 141.587,162.727 140,161.5C 137.695,163.022 136.195,165.022 135.5,167.5C 130.161,169.698 125.994,168.365 123,163.5C 121.187,156.954 120.353,150.287 120.5,143.5C 120.815,139.629 120.482,135.962 119.5,132.5C 113.013,131.346 106.346,131.179 99.5,132C 98.944,132.383 98.6107,132.883 98.5,133.5C 98.1667,133.5 97.8333,133.5 97.5,133.5C 96.3065,133.03 95.6399,132.03 95.5,130.5C 95.6667,129.5 95.8333,128.5 96,127.5C 97.9258,125.455 100.092,123.622 102.5,122C 105.385,121.305 108.218,120.472 111,119.5C 113.079,120.403 115.246,121.069 117.5,121.5C 118.726,121.48 119.726,121.147 120.5,120.5C 123.857,120.894 126.19,119.561 127.5,116.5C 127.297,111.724 126.631,106.891 125.5,102C 132.582,90.9999 137.915,79.1666 141.5,66.5C 143.663,64.1715 145.996,62.0048 148.5,60C 155.839,58.8526 158.506,62.0193 156.5,69.5 Z"/></g>
<g><path style="opacity:1" fill="#4f464e" d="M 119.5,132.5 C 112.443,132.24 105.443,132.573 98.5,133.5C 98.6107,132.883 98.944,132.383 99.5,132C 106.346,131.179 113.013,131.346 119.5,132.5 Z"/></g>
<g><path style="opacity:1" fill="#8d878d" d="M 119.5,132.5 C 120.482,135.962 120.815,139.629 120.5,143.5C 120.167,143.5 119.833,143.5 119.5,143.5C 119.5,140.167 119.5,136.833 119.5,133.5C 113.642,133.178 107.975,133.511 102.5,134.5C 100.833,134.5 99.1667,134.5 97.5,134.5C 97.5,134.167 97.5,133.833 97.5,133.5C 97.8333,133.5 98.1667,133.5 98.5,133.5C 105.443,132.573 112.443,132.24 119.5,132.5 Z"/></g>
<g><path style="opacity:1" fill="#736d73" d="M 97.5,134.5 C 93.9864,137.747 90.3197,140.747 86.5,143.5C 89.1083,139.342 92.775,136.342 97.5,134.5 Z"/></g>
<g><path style="opacity:1" fill="#b1afb4" d="M 102.5,134.5 C 107.975,133.511 113.642,133.178 119.5,133.5C 119.5,136.833 119.5,140.167 119.5,143.5C 110.894,143.752 103.227,146.419 96.5,151.5C 96.5106,149.983 97.1772,148.816 98.5,148C 104.605,144.33 111.271,142.164 118.5,141.5C 118.5,139.167 118.5,136.833 118.5,134.5C 113.167,134.5 107.833,134.5 102.5,134.5 Z"/></g>
<g><path style="opacity:1" fill="#1b161b" d="M 227.5,130.5 C 231.754,135.32 236.087,140.153 240.5,145C 246.244,149.869 252.578,153.703 259.5,156.5C 260.583,155.635 260.749,154.635 260,153.5C 258.516,149.632 256.182,146.299 253,143.5C 252.333,140.833 252.333,138.167 253,135.5C 255.293,134.113 257.46,132.946 259.5,132C 266.743,140.283 272.909,149.449 278,159.5C 287.142,189.095 286.642,218.428 276.5,247.5C 280.88,246.21 285.213,244.71 289.5,243C 292.088,239.242 295.421,236.408 299.5,234.5C 299.5,241.833 299.5,249.167 299.5,256.5C 293.849,256.417 290.349,259.084 289,264.5C 284.954,267.575 282.12,271.575 280.5,276.5C 279.127,276.657 277.793,276.49 276.5,276C 277.877,273.667 278.877,271.167 279.5,268.5C 279.192,267.692 278.692,267.025 278,266.5C 275.609,267.602 275.109,266.936 276.5,264.5C 273.572,263.516 270.572,263.183 267.5,263.5C 268.444,258.741 269.777,254.074 271.5,249.5C 270.167,249.5 268.833,249.5 267.5,249.5C 267.579,248.07 267.246,246.736 266.5,245.5C 267.098,244.205 267.598,242.872 268,241.5C 268.763,244.063 269.263,244.063 269.5,241.5C 268.714,239.959 267.714,238.626 266.5,237.5C 268.888,234.699 270.388,231.366 271,227.5C 271.824,217.991 271.658,208.657 270.5,199.5C 270.806,196.615 270.473,193.948 269.5,191.5C 269.972,186.049 268.306,181.382 264.5,177.5C 258.802,173.151 252.468,170.151 245.5,168.5C 244.737,167.732 243.737,167.232 242.5,167C 235.986,166.18 229.653,166.347 223.5,167.5C 221.901,167.232 220.568,167.566 219.5,168.5C 218.296,172.469 218.629,176.469 220.5,180.5C 219.778,185.711 218.945,191.044 218,196.5C 213.323,197.103 208.823,198.103 204.5,199.5C 203.833,199.5 203.167,199.5 202.5,199.5C 202.167,199.5 201.833,199.5 201.5,199.5C 199.188,196.675 197.022,193.675 195,190.5C 193.795,189.929 192.628,189.262 191.5,188.5C 195.971,188.473 200.304,188.306 204.5,188C 205.966,186.448 206.966,184.614 207.5,182.5C 206.066,180.78 205.233,178.78 205,176.5C 204.333,169.167 204.333,161.833 205,154.5C 206.87,146.156 208.87,137.823 211,129.5C 212.509,128.91 214.009,128.244 215.5,127.5C 213.061,123.273 213.895,119.607 218,116.5C 219.734,117.249 221.567,117.749 223.5,118C 222.833,118.333 222.167,118.667 221.5,119C 222.911,121.996 223.911,125.163 224.5,128.5C 225.518,129.193 226.518,129.859 227.5,130.5 Z"/></g>
<g><path style="opacity:1" fill="#b4afb5" d="M 222.5,145.5 C 223.806,147.473 225.473,149.139 227.5,150.5C 227.5,150.833 227.5,151.167 227.5,151.5C 226.552,152.978 225.219,153.978 223.5,154.5C 220.757,154.923 219.424,153.756 219.5,151C 219.492,148.449 220.492,146.616 222.5,145.5 Z"/></g>
<g><path style="opacity:1" fill="#757076" d="M 86.5,143.5 C 83.5644,149.101 79.5644,153.767 74.5,157.5C 77.6937,153.281 80.8604,148.947 84,144.5C 84.6708,143.748 85.5041,143.414 86.5,143.5 Z"/></g>
<g><path style="opacity:1" fill="#d6d3d9" d="M 97.5,134.5 C 99.1667,134.5 100.833,134.5 102.5,134.5C 107.833,134.5 113.167,134.5 118.5,134.5C 118.5,136.833 118.5,139.167 118.5,141.5C 111.271,142.164 104.605,144.33 98.5,148C 97.1772,148.816 96.5106,149.983 96.5,151.5C 96.1667,151.5 95.8333,151.5 95.5,151.5C 94.7611,151.369 94.0944,151.536 93.5,152C 82.9741,163.424 78.9741,176.924 81.5,192.5C 80.8977,184.935 80.0644,177.269 79,169.5C 78,170.833 77,170.833 76,169.5C 75.7811,170.938 75.2811,172.271 74.5,173.5C 74.4669,172.011 73.9669,170.678 73,169.5C 72.7978,171.256 72.2978,172.922 71.5,174.5C 70.914,174.291 70.414,173.957 70,173.5C 69.5831,174.756 68.7498,175.423 67.5,175.5C 67.8333,172.833 68.1667,170.167 68.5,167.5C 70.8899,164.434 72.8899,161.1 74.5,157.5C 79.5644,153.767 83.5644,149.101 86.5,143.5C 90.3197,140.747 93.9864,137.747 97.5,134.5 Z"/></g>
<g><path style="opacity:1" fill="#373238" d="M 222.5,145.5 C 220.492,146.616 219.492,148.449 219.5,151C 219.424,153.756 220.757,154.923 223.5,154.5C 225.604,154.799 227.604,154.466 229.5,153.5C 229.145,152.478 228.478,151.811 227.5,151.5C 227.5,151.167 227.5,150.833 227.5,150.5C 230.297,150.967 231.631,152.633 231.5,155.5C 228.52,155.62 225.687,156.287 223,157.5C 221.795,156.929 220.628,156.262 219.5,155.5C 218.415,152.227 218.248,148.894 219,145.5C 220.376,142.875 221.542,142.875 222.5,145.5 Z"/></g>
<g><path style="opacity:1" fill="#736e74" d="M 227.5,151.5 C 228.478,151.811 229.145,152.478 229.5,153.5C 227.604,154.466 225.604,154.799 223.5,154.5C 225.219,153.978 226.552,152.978 227.5,151.5 Z"/></g>
<g><path style="opacity:1" fill="#161117" d="M 68.5,167.5 C 68.1667,170.167 67.8333,172.833 67.5,175.5C 67.5,175.833 67.5,176.167 67.5,176.5C 66.2237,178.562 65.3903,180.896 65,183.5C 64.1808,189.681 64.3475,195.681 65.5,201.5C 65.5,202.167 65.5,202.833 65.5,203.5C 65.5,204.833 65.5,206.167 65.5,207.5C 64.4684,209.434 63.8017,211.6 63.5,214C 65.0116,217.099 66.6783,220.099 68.5,223C 67.8333,223.333 67.1667,223.667 66.5,224C 67.4061,225.699 67.7394,227.533 67.5,229.5C 65.5,229.5 63.5,229.5 61.5,229.5C 62.7387,228.788 63.2387,227.788 63,226.5C 62.0922,224.561 60.5922,223.561 58.5,223.5C 56.3778,217.922 53.7112,212.589 50.5,207.5C 49.4414,197.86 49.2747,188.194 50,178.5C 50.3661,176.548 51.1995,174.882 52.5,173.5C 53.933,170.718 55.0997,167.718 56,164.5C 58.514,161.095 61.3473,160.762 64.5,163.5C 65.1924,162.975 65.6924,162.308 66,161.5C 67.3187,163.287 68.152,165.287 68.5,167.5 Z"/></g>
<g><path style="opacity:1" fill="#777780" d="M 119.5,143.5 C 119.337,150.547 119.837,157.547 121,164.5C 123.833,166 126,168.167 127.5,171C 131.099,171.957 134.432,171.457 137.5,169.5C 138.324,171.421 139.657,172.754 141.5,173.5C 142.801,174.64 143.968,175.973 145,177.5C 145.241,180.289 145.908,182.956 147,185.5C 151.707,189.372 155.873,193.706 159.5,198.5C 155.897,196.237 152.564,193.57 149.5,190.5C 148.791,189.596 147.791,189.263 146.5,189.5C 146.688,191.103 146.188,192.437 145,193.5C 141.667,192.167 138.333,192.167 135,193.5C 130.535,192.167 126.369,190.167 122.5,187.5C 121.808,188.025 121.308,188.692 121,189.5C 119.926,188.382 118.76,187.382 117.5,186.5C 118.645,185.109 118.645,183.776 117.5,182.5C 115.5,180.5 113.5,178.5 111.5,176.5C 107.541,175.673 103.541,175.173 99.5,175C 97.324,174.837 95.4907,174.004 94,172.5C 93.586,172.957 93.086,173.291 92.5,173.5C 91.7124,172.23 90.7124,171.23 89.5,170.5C 89.9175,169.778 90.5842,169.278 91.5,169C 90.2068,168.51 88.8734,168.343 87.5,168.5C 87.3379,166.473 87.5045,164.473 88,162.5C 90.3001,158.699 92.8001,155.033 95.5,151.5C 95.8333,151.5 96.1667,151.5 96.5,151.5C 103.227,146.419 110.894,143.752 119.5,143.5 Z"/></g>
<g><path style="opacity:1" fill="#221c23" d="M 227.5,130.5 C 226.518,129.859 225.518,129.193 224.5,128.5C 223.911,125.163 222.911,121.996 221.5,119C 222.167,118.667 222.833,118.333 223.5,118C 221.567,117.749 219.734,117.249 218,116.5C 213.895,119.607 213.061,123.273 215.5,127.5C 214.009,128.244 212.509,128.91 211,129.5C 208.87,137.823 206.87,146.156 205,154.5C 204.333,161.833 204.333,169.167 205,176.5C 205.233,178.78 206.066,180.78 207.5,182.5C 206.966,184.614 205.966,186.448 204.5,188C 200.304,188.306 195.971,188.473 191.5,188.5C 192.628,189.262 193.795,189.929 195,190.5C 197.022,193.675 199.188,196.675 201.5,199.5C 199.565,198.85 197.565,198.517 195.5,198.5C 193.181,198.008 191.181,197.008 189.5,195.5C 187.898,193.926 185.898,193.259 183.5,193.5C 185.167,203.2 181.167,207.533 171.5,206.5C 168.832,206.334 166.498,205.334 164.5,203.5C 163.118,201.451 161.452,199.785 159.5,198.5C 155.873,193.706 151.707,189.372 147,185.5C 145.908,182.956 145.241,180.289 145,177.5C 143.968,175.973 142.801,174.64 141.5,173.5C 141.425,170.794 141.092,168.127 140.5,165.5C 138.446,165.365 136.779,166.032 135.5,167.5C 136.195,165.022 137.695,163.022 140,161.5C 141.587,162.727 142.921,162.394 144,160.5C 145.209,163.707 146.209,167.041 147,170.5C 147.414,170.957 147.914,171.291 148.5,171.5C 148.772,160.349 149.105,149.349 149.5,138.5C 149.588,157.066 155.255,173.566 166.5,188C 168.112,188.72 169.612,188.554 171,187.5C 171.695,183.467 172.528,179.467 173.5,175.5C 175.743,172.106 177.243,168.439 178,164.5C 179.299,163.02 180.966,162.354 183,162.5C 186.06,162.225 188.06,163.558 189,166.5C 189.082,170.896 188.749,175.23 188,179.5C 192.74,182.386 197.906,184.053 203.5,184.5C 202.446,175.194 202.279,165.861 203,156.5C 204.723,135.426 211.223,116.092 222.5,98.5C 234.857,95.0289 238.69,99.3622 234,111.5C 231.606,115.138 229.106,118.638 226.5,122C 226.294,123.366 225.96,124.699 225.5,126C 226.414,127.406 227.08,128.906 227.5,130.5 Z"/></g>
<g><path style="opacity:1" fill="#585359" d="M 223.5,167.5 C 229.653,166.347 235.986,166.18 242.5,167C 243.737,167.232 244.737,167.732 245.5,168.5C 245.167,168.5 244.833,168.5 244.5,168.5C 243.5,168.5 242.5,168.5 241.5,168.5C 235.69,167.51 229.69,167.177 223.5,167.5 Z"/></g>
<g><path style="opacity:1" fill="#5c5a61" d="M 119.5,143.5 C 119.833,143.5 120.167,143.5 120.5,143.5C 120.353,150.287 121.187,156.954 123,163.5C 125.994,168.365 130.161,169.698 135.5,167.5C 136.779,166.032 138.446,165.365 140.5,165.5C 141.092,168.127 141.425,170.794 141.5,173.5C 139.657,172.754 138.324,171.421 137.5,169.5C 134.432,171.457 131.099,171.957 127.5,171C 126,168.167 123.833,166 121,164.5C 119.837,157.547 119.337,150.547 119.5,143.5 Z"/></g>
<g><path style="opacity:1" fill="#55474e" d="M 219.5,168.5 C 219.308,172.902 220.308,176.902 222.5,180.5C 222.5,181.167 222.5,181.833 222.5,182.5C 221.5,182.167 220.833,181.5 220.5,180.5C 218.629,176.469 218.296,172.469 219.5,168.5 Z"/></g>
<g><path style="opacity:1" fill="#d0c3cb" d="M 241.5,168.5 C 242.5,168.5 243.5,168.5 244.5,168.5C 248.105,170.35 251.772,172.35 255.5,174.5C 256.711,175.72 256.711,176.887 255.5,178C 256.448,178.483 257.448,178.649 258.5,178.5C 258.5,179.5 258.5,180.5 258.5,181.5C 259.791,180.222 261.791,179.555 264.5,179.5C 266.178,183.545 267.845,187.545 269.5,191.5C 270.473,193.948 270.806,196.615 270.5,199.5C 270.822,205.358 270.489,211.025 269.5,216.5C 268.676,212.688 268.176,208.688 268,204.5C 267.243,202.685 266.41,201.019 265.5,199.5C 264.14,194.085 261.473,189.418 257.5,185.5C 256.71,184.206 255.71,183.039 254.5,182C 248.895,179.612 243.395,177.112 238,174.5C 235.717,175.719 233.384,175.719 231,174.5C 228.379,176.52 225.545,176.853 222.5,175.5C 221.22,173.298 221.22,171.132 222.5,169C 228.825,168.5 235.158,168.334 241.5,168.5 Z"/></g>
<g><path style="opacity:1" fill="#352e35" d="M -0.5,175.5 C 1.1604,184.159 4.49374,192.159 9.5,199.5C 6.35332,204.191 3.01998,208.858 -0.5,213.5C -0.5,200.833 -0.5,188.167 -0.5,175.5 Z"/></g>
<g><path style="opacity:1" fill="#bfabb1" d="M 223.5,167.5 C 229.69,167.177 235.69,167.51 241.5,168.5C 235.158,168.334 228.825,168.5 222.5,169C 221.22,171.132 221.22,173.298 222.5,175.5C 225.545,176.853 228.379,176.52 231,174.5C 233.384,175.719 235.717,175.719 238,174.5C 243.395,177.112 248.895,179.612 254.5,182C 255.71,183.039 256.71,184.206 257.5,185.5C 246.627,178.35 234.96,176.683 222.5,180.5C 220.308,176.902 219.308,172.902 219.5,168.5C 220.568,167.566 221.901,167.232 223.5,167.5 Z"/></g>
<g><path style="opacity:1" fill="#81848c" d="M 89.5,170.5 C 90.7124,171.23 91.7124,172.23 92.5,173.5C 93.086,173.291 93.586,172.957 94,172.5C 95.4907,174.004 97.324,174.837 99.5,175C 103.541,175.173 107.541,175.673 111.5,176.5C 113.5,178.5 115.5,180.5 117.5,182.5C 118.645,183.776 118.645,185.109 117.5,186.5C 118.76,187.382 119.926,188.382 121,189.5C 121.308,188.692 121.808,188.025 122.5,187.5C 126.369,190.167 130.535,192.167 135,193.5C 138.333,192.167 141.667,192.167 145,193.5C 146.188,192.437 146.688,191.103 146.5,189.5C 147.791,189.263 148.791,189.596 149.5,190.5C 148.632,193.449 147.632,196.449 146.5,199.5C 141.416,204.081 136.416,208.915 131.5,214C 127.682,214.847 124.016,216.014 120.5,217.5C 119.583,216.873 118.583,216.539 117.5,216.5C 114.642,215.834 111.642,215.167 108.5,214.5C 108.099,212.566 107.099,211.066 105.5,210C 107.632,209.082 108.299,207.749 107.5,206C 108.742,205.689 109.742,206.189 110.5,207.5C 111.833,205.5 111.833,203.5 110.5,201.5C 106.509,199.007 102.176,197.34 97.5,196.5C 96.4962,191.861 95.8295,186.861 95.5,181.5C 92.8333,181.5 90.1667,181.5 87.5,181.5C 87.0114,184.988 86.0114,184.822 84.5,181C 85,178.5 85.5,176 86,173.5C 86.7589,171.937 87.9256,170.937 89.5,170.5 Z"/></g>
<g><path style="opacity:1" fill="#93585f" d="M 257.5,185.5 C 261.473,189.418 264.14,194.085 265.5,199.5C 263.697,196.836 262.03,194.003 260.5,191C 256.521,188.364 252.521,185.697 248.5,183C 241.717,180.928 235.05,181.095 228.5,183.5C 227.264,182.754 225.93,182.421 224.5,182.5C 223.833,182.5 223.167,182.5 222.5,182.5C 222.5,181.833 222.5,181.167 222.5,180.5C 234.96,176.683 246.627,178.35 257.5,185.5 Z"/></g>
<g><path style="opacity:1" fill="#b6b1ba" d="M 244.5,168.5 C 244.833,168.5 245.167,168.5 245.5,168.5C 252.468,170.151 258.802,173.151 264.5,177.5C 268.306,181.382 269.972,186.049 269.5,191.5C 267.845,187.545 266.178,183.545 264.5,179.5C 261.791,179.555 259.791,180.222 258.5,181.5C 258.5,180.5 258.5,179.5 258.5,178.5C 257.448,178.649 256.448,178.483 255.5,178C 256.711,176.887 256.711,175.72 255.5,174.5C 251.772,172.35 248.105,170.35 244.5,168.5 Z"/></g>
<g><path style="opacity:1" fill="#8a898d" d="M 95.5,151.5 C 92.8001,155.033 90.3001,158.699 88,162.5C 87.5045,164.473 87.3379,166.473 87.5,168.5C 88.8734,168.343 90.2068,168.51 91.5,169C 90.5842,169.278 89.9175,169.778 89.5,170.5C 87.9256,170.937 86.7589,171.937 86,173.5C 85.5,176 85,178.5 84.5,181C 86.0114,184.822 87.0114,184.988 87.5,181.5C 90.1667,181.5 92.8333,181.5 95.5,181.5C 95.8295,186.861 96.4962,191.861 97.5,196.5C 102.176,197.34 106.509,199.007 110.5,201.5C 111.833,203.5 111.833,205.5 110.5,207.5C 109.742,206.189 108.742,205.689 107.5,206C 108.299,207.749 107.632,209.082 105.5,210C 107.099,211.066 108.099,212.566 108.5,214.5C 111.642,215.167 114.642,215.834 117.5,216.5C 110.057,217.623 102.724,216.623 95.5,213.5C 92.3864,212.909 89.8864,211.242 88,208.5C 85.7822,203.41 83.6156,198.41 81.5,193.5C 81.5,193.167 81.5,192.833 81.5,192.5C 78.9741,176.924 82.9741,163.424 93.5,152C 94.0944,151.536 94.7611,151.369 95.5,151.5 Z"/></g>
<g><path style="opacity:1" fill="#f8f4f8" d="M 81.5,192.5 C 81.5,192.833 81.5,193.167 81.5,193.5C 82.3211,196.554 82.3211,199.554 81.5,202.5C 75.3387,199.557 70.0054,199.89 65.5,203.5C 65.5,202.833 65.5,202.167 65.5,201.5C 65.1526,193.064 65.8193,184.731 67.5,176.5C 67.5,176.167 67.5,175.833 67.5,175.5C 68.7498,175.423 69.5831,174.756 70,173.5C 70.414,173.957 70.914,174.291 71.5,174.5C 72.2978,172.922 72.7978,171.256 73,169.5C 73.9669,170.678 74.4669,172.011 74.5,173.5C 75.2811,172.271 75.7811,170.938 76,169.5C 77,170.833 78,170.833 79,169.5C 80.0644,177.269 80.8977,184.935 81.5,192.5 Z"/></g>
<g><path style="opacity:1" fill="#97474f" d="M 265.5,199.5 C 267.102,210.257 266.768,220.924 264.5,231.5C 263.218,234.014 261.551,236.347 259.5,238.5C 258.423,239.705 257.09,240.372 255.5,240.5C 255.5,239.833 255.5,239.167 255.5,238.5C 259.156,235.197 261.822,231.197 263.5,226.5C 264.653,220.681 264.819,214.681 264,208.5C 263.158,205.311 261.825,202.311 260,199.5C 259.506,197.866 259.34,196.199 259.5,194.5C 256.5,194.833 255.167,193.5 255.5,190.5C 252.286,189.56 249.286,188.06 246.5,186C 244.315,186.188 242.315,186.354 240.5,186.5C 239.749,185.624 239.249,184.624 239,183.5C 237.87,184.114 236.537,184.114 235,183.5C 234.167,183.833 233.333,184.167 232.5,184.5C 234.67,186.333 236.67,188.333 238.5,190.5C 236.507,190.88 234.173,191.214 231.5,191.5C 231.477,193.927 230.977,196.26 230,198.5C 229.439,197.978 228.772,197.645 228,197.5C 226.2,198.32 224.366,198.986 222.5,199.5C 225.774,194.234 226.441,188.567 224.5,182.5C 225.93,182.421 227.264,182.754 228.5,183.5C 235.05,181.095 241.717,180.928 248.5,183C 252.521,185.697 256.521,188.364 260.5,191C 262.03,194.003 263.697,196.836 265.5,199.5 Z"/></g>
<g><path style="opacity:1" fill="#6a2c34" d="M 222.5,182.5 C 223.167,182.5 223.833,182.5 224.5,182.5C 226.441,188.567 225.774,194.234 222.5,199.5C 222.389,200.117 222.056,200.617 221.5,201C 215.843,201.499 210.176,201.666 204.5,201.5C 203.5,201.167 202.833,200.5 202.5,199.5C 203.167,199.5 203.833,199.5 204.5,199.5C 208.981,200.648 213.648,200.815 218.5,200C 219.787,198.59 220.954,197.09 222,195.5C 222.499,191.179 222.666,186.846 222.5,182.5 Z"/></g>
<g><path style="opacity:1" fill="#b4b0b6" d="M 67.5,176.5 C 65.8193,184.731 65.1526,193.064 65.5,201.5C 64.3475,195.681 64.1808,189.681 65,183.5C 65.3903,180.896 66.2237,178.562 67.5,176.5 Z"/></g>
<g><path style="opacity:1" fill="#9e434b" d="M 263.5,226.5 C 263.666,221.821 263.499,217.155 263,212.5C 262.78,208.615 260.947,205.782 257.5,204C 251.509,203.501 245.509,203.334 239.5,203.5C 239.763,200.266 238.263,198.932 235,199.5C 231.265,200.689 227.765,202.355 224.5,204.5C 223.393,203.978 222.226,203.645 221,203.5C 216.867,204.638 212.7,205.638 208.5,206.5C 205.704,214.33 205.037,222.33 206.5,230.5C 205.503,230.53 204.836,230.03 204.5,229C 202.752,222.289 202.085,215.456 202.5,208.5C 202.878,206.079 203.545,203.746 204.5,201.5C 210.176,201.666 215.843,201.499 221.5,201C 222.056,200.617 222.389,200.117 222.5,199.5C 224.366,198.986 226.2,198.32 228,197.5C 228.772,197.645 229.439,197.978 230,198.5C 230.977,196.26 231.477,193.927 231.5,191.5C 234.173,191.214 236.507,190.88 238.5,190.5C 236.67,188.333 234.67,186.333 232.5,184.5C 233.333,184.167 234.167,183.833 235,183.5C 236.537,184.114 237.87,184.114 239,183.5C 239.249,184.624 239.749,185.624 240.5,186.5C 242.315,186.354 244.315,186.188 246.5,186C 249.286,188.06 252.286,189.56 255.5,190.5C 255.167,193.5 256.5,194.833 259.5,194.5C 259.34,196.199 259.506,197.866 260,199.5C 261.825,202.311 263.158,205.311 264,208.5C 264.819,214.681 264.653,220.681 263.5,226.5 Z"/></g>
<g><path style="opacity:1" fill="#2e0f15" d="M 220.5,180.5 C 220.833,181.5 221.5,182.167 222.5,182.5C 222.666,186.846 222.499,191.179 222,195.5C 220.954,197.09 219.787,198.59 218.5,200C 213.648,200.815 208.981,200.648 204.5,199.5C 208.823,198.103 213.323,197.103 218,196.5C 218.945,191.044 219.778,185.711 220.5,180.5 Z"/></g>
<g><path style="opacity:1" fill="#555358" d="M 189.5,195.5 C 188.167,195.5 186.833,195.5 185.5,195.5C 187.726,205.607 183.726,209.94 173.5,208.5C 172.833,207.833 172.167,207.167 171.5,206.5C 181.167,207.533 185.167,203.2 183.5,193.5C 185.898,193.259 187.898,193.926 189.5,195.5 Z"/></g>
<g><path style="opacity:1" fill="#d5d4d9" d="M 149.5,190.5 C 152.564,193.57 155.897,196.237 159.5,198.5C 161.452,199.785 163.118,201.451 164.5,203.5C 166.498,205.334 168.832,206.334 171.5,206.5C 172.167,207.167 172.833,207.833 173.5,208.5C 168.784,209.993 164.117,209.826 159.5,208C 161.715,207.83 163.715,207.163 165.5,206C 164.328,205.647 163.162,205.813 162,206.5C 161.055,206.095 160.388,205.428 160,204.5C 159.692,205.308 159.192,205.975 158.5,206.5C 158.331,205.603 157.998,204.603 157.5,203.5C 156.131,205.124 154.464,205.624 152.5,205C 151.549,204.282 151.383,203.449 152,202.5C 153.491,200.996 155.324,200.163 157.5,200C 155.459,198.259 153.292,198.092 151,199.5C 151.263,198.049 151.096,196.716 150.5,195.5C 149.333,197.079 148,198.412 146.5,199.5C 147.632,196.449 148.632,193.449 149.5,190.5 Z"/></g>
<g><path style="opacity:1" fill="#d4d3d7" d="M 189.5,195.5 C 191.181,197.008 193.181,198.008 195.5,198.5C 197.214,199.738 199.214,200.405 201.5,200.5C 201.737,201.791 201.404,202.791 200.5,203.5C 200.631,202.761 200.464,202.094 200,201.5C 199.581,202.672 198.915,203.672 198,204.5C 198.151,208.373 196.984,211.706 194.5,214.5C 193.614,213.675 193.281,212.675 193.5,211.5C 190.951,211.559 188.951,210.559 187.5,208.5C 186.833,209.167 186.167,209.833 185.5,210.5C 181.914,210.26 178.248,210.093 174.5,210C 173.944,209.617 173.611,209.117 173.5,208.5C 183.726,209.94 187.726,205.607 185.5,195.5C 186.833,195.5 188.167,195.5 189.5,195.5 Z"/></g>
<g><path style="opacity:1" fill="#080709" d="M 9.5,199.5 C 21.2507,219.109 38.584,229.109 61.5,229.5C 63.5,229.5 65.5,229.5 67.5,229.5C 67.7394,227.533 67.4061,225.699 66.5,224C 67.1667,223.667 67.8333,223.333 68.5,223C 66.6783,220.099 65.0116,217.099 63.5,214C 63.8017,211.6 64.4684,209.434 65.5,207.5C 65.7549,209.967 66.7549,211.967 68.5,213.5C 70.005,218.505 72.3384,223.505 75.5,228.5C 74.3847,231.067 72.718,233.233 70.5,235C 70.8333,235.333 71.1667,235.667 71.5,236C 69.8588,237.129 68.8588,238.629 68.5,240.5C 67.5084,240.328 66.8417,240.662 66.5,241.5C 64.7748,241.843 64.2748,242.843 65,244.5C 67.2897,247.969 70.4564,249.969 74.5,250.5C 74.9731,251.906 75.9731,252.573 77.5,252.5C 78.6253,254.129 79.9586,255.629 81.5,257C 85.7243,259.272 89.7243,261.772 93.5,264.5C 95.822,266.664 98.4887,268.331 101.5,269.5C 103.955,271.632 105.621,274.299 106.5,277.5C 106.814,280.947 107.648,284.28 109,287.5C 109.499,291.486 109.666,295.486 109.5,299.5C 104.833,299.5 100.167,299.5 95.5,299.5C 95.666,294.156 95.4994,288.823 95,283.5C 94.6174,282.944 94.1174,282.611 93.5,282.5C 92.7375,281.732 91.7375,281.232 90.5,281C 84.1754,280.5 77.8421,280.334 71.5,280.5C 65.752,280.791 60.0854,280.791 54.5,280.5C 53.6143,281.325 53.281,282.325 53.5,283.5C 50.0164,283.672 47.0164,282.672 44.5,280.5C 43.5581,280.608 42.7247,280.941 42,281.5C 41.3551,280.354 40.5217,279.354 39.5,278.5C 43.5907,276.038 47.7573,273.704 52,271.5C 53.1074,271.585 54.1074,271.919 55,272.5C 60.7351,271.306 66.5685,270.472 72.5,270C 74.0558,267.499 73.3892,265.999 70.5,265.5C 70.5,265.167 70.5,264.833 70.5,264.5C 69.7813,262.112 68.1146,260.612 65.5,260C 63.3136,258.691 61.1469,258.524 59,259.5C 57.98,258.109 57.1466,256.609 56.5,255C 53.9698,254.109 51.6365,252.942 49.5,251.5C 46.9602,248.272 44.2935,245.105 41.5,242C 38.5682,241.047 35.5682,240.547 32.5,240.5C 30.2643,248.372 26.431,255.372 21,261.5C 14.7231,271.319 9.3898,281.652 5,292.5C 4.50335,294.81 4.33669,297.143 4.5,299.5C 2.83333,299.5 1.16667,299.5 -0.5,299.5C -0.5,291.833 -0.5,284.167 -0.5,276.5C 2.32824,273.325 4.32824,269.658 5.5,265.5C 7.93677,264.036 9.77011,262.036 11,259.5C 11.3333,259.833 11.6667,260.167 12,260.5C 12.9693,255.413 14.8027,250.746 17.5,246.5C 17.8333,245.167 18.1667,243.833 18.5,242.5C 19.9663,241.653 20.7996,240.32 21,238.5C 21.7958,235.961 21.6291,233.628 20.5,231.5C 17.1677,228.175 13.5011,225.175 9.5,222.5C 7.812,223.521 6.47866,224.855 5.5,226.5C 3.5,227.5 1.5,228.5 -0.5,229.5C -0.5,224.167 -0.5,218.833 -0.5,213.5C 3.01998,208.858 6.35332,204.191 9.5,199.5 Z"/></g>
<g><path style="opacity:1" fill="#b98f94" d="M 195.5,198.5 C 197.565,198.517 199.565,198.85 201.5,199.5C 201.833,199.5 202.167,199.5 202.5,199.5C 202.833,200.5 203.5,201.167 204.5,201.5C 203.545,203.746 202.878,206.079 202.5,208.5C 200.245,215.274 199.912,222.274 201.5,229.5C 200.778,229.082 200.278,228.416 200,227.5C 199.302,219.472 199.468,211.472 200.5,203.5C 201.404,202.791 201.737,201.791 201.5,200.5C 199.214,200.405 197.214,199.738 195.5,198.5 Z"/></g>
<g><path style="opacity:1" fill="#e9e5e8" d="M 173.5,208.5 C 173.611,209.117 173.944,209.617 174.5,210C 178.248,210.093 181.914,210.26 185.5,210.5C 186.167,209.833 186.833,209.167 187.5,208.5C 188.951,210.559 190.951,211.559 193.5,211.5C 193.281,212.675 193.614,213.675 194.5,214.5C 196.984,211.706 198.151,208.373 198,204.5C 198.915,203.672 199.581,202.672 200,201.5C 200.464,202.094 200.631,202.761 200.5,203.5C 199.468,211.472 199.302,219.472 200,227.5C 200.278,228.416 200.778,229.082 201.5,229.5C 203.008,231.181 204.008,233.181 204.5,235.5C 202.743,234.916 201.41,233.749 200.5,232C 198.621,229.039 197.121,225.873 196,222.5C 195.517,223.448 195.351,224.448 195.5,225.5C 191.089,225.797 187.089,224.631 183.5,222C 178.267,222.17 173.433,221.003 169,218.5C 168.127,218.735 167.293,219.069 166.5,219.5C 164.271,218.423 161.937,217.756 159.5,217.5C 159.662,215.473 159.495,213.473 159,211.5C 156.973,211.986 154.807,211.986 152.5,211.5C 152.313,209.436 151.813,207.436 151,205.5C 150.667,206.167 150.333,206.833 150,207.5C 149.667,205.167 149.333,202.833 149,200.5C 146.288,202.714 144.121,205.38 142.5,208.5C 142.833,209.167 143.167,209.833 143.5,210.5C 142.3,211.292 140.967,211.292 139.5,210.5C 141.439,206.566 143.772,202.899 146.5,199.5C 148,198.412 149.333,197.079 150.5,195.5C 151.096,196.716 151.263,198.049 151,199.5C 153.292,198.092 155.459,198.259 157.5,200C 155.324,200.163 153.491,200.996 152,202.5C 151.383,203.449 151.549,204.282 152.5,205C 154.464,205.624 156.131,205.124 157.5,203.5C 157.998,204.603 158.331,205.603 158.5,206.5C 159.192,205.975 159.692,205.308 160,204.5C 160.388,205.428 161.055,206.095 162,206.5C 163.162,205.813 164.328,205.647 165.5,206C 163.715,207.163 161.715,207.83 159.5,208C 164.117,209.826 168.784,209.993 173.5,208.5 Z"/></g>
<g><path style="opacity:1" fill="#494642" d="M 65.5,207.5 C 67.047,208.768 68.047,210.435 68.5,212.5C 68.5,212.833 68.5,213.167 68.5,213.5C 66.7549,211.967 65.7549,209.967 65.5,207.5 Z"/></g>
<g><path style="opacity:1" fill="#a9414c" d="M 239.5,203.5 C 245.509,203.334 251.509,203.501 257.5,204C 260.947,205.782 262.78,208.615 263,212.5C 263.499,217.155 263.666,221.821 263.5,226.5C 261.822,231.197 259.156,235.197 255.5,238.5C 258.546,234.048 260.546,229.048 261.5,223.5C 260.5,223.5 259.5,223.5 258.5,223.5C 258.357,226.097 257.523,228.431 256,230.5C 255.517,229.552 255.351,228.552 255.5,227.5C 250.167,227.5 244.833,227.5 239.5,227.5C 239.391,223.12 237.391,221.786 233.5,223.5C 231.95,220.828 232.45,218.495 235,216.5C 236.183,217.731 237.349,217.731 238.5,216.5C 239.374,214.253 239.708,211.92 239.5,209.5C 244.629,208.386 244.629,207.719 239.5,207.5C 239.5,206.167 239.5,204.833 239.5,203.5 Z"/></g>
<g><path style="opacity:1" fill="#f5f4f5" d="M 204.5,235.5 C 207.434,239.773 210.767,243.773 214.5,247.5C 211.433,246.805 208.433,245.805 205.5,244.5C 203.482,245.813 202.315,245.147 202,242.5C 198.987,243.016 196.32,242.016 194,239.5C 193.586,239.957 193.086,240.291 192.5,240.5C 190.504,238.501 188.171,237.001 185.5,236C 178.939,235.88 172.606,234.713 166.5,232.5C 164.902,233.485 163.235,233.651 161.5,233C 161.833,232.667 162.167,232.333 162.5,232C 156.919,229.956 151.252,228.123 145.5,226.5C 144.846,224.885 144.346,223.218 144,221.5C 143.481,222.516 142.647,223.182 141.5,223.5C 140.137,222.802 138.971,222.802 138,223.5C 137.333,222.833 136.667,222.167 136,221.5C 133.838,221.94 131.671,222.273 129.5,222.5C 128.289,221.726 128.289,220.893 129.5,220C 128.207,219.51 126.873,219.343 125.5,219.5C 130.163,216.501 134.83,213.501 139.5,210.5C 140.967,211.292 142.3,211.292 143.5,210.5C 143.167,209.833 142.833,209.167 142.5,208.5C 144.121,205.38 146.288,202.714 149,200.5C 149.333,202.833 149.667,205.167 150,207.5C 150.333,206.833 150.667,206.167 151,205.5C 151.813,207.436 152.313,209.436 152.5,211.5C 154.807,211.986 156.973,211.986 159,211.5C 159.495,213.473 159.662,215.473 159.5,217.5C 161.937,217.756 164.271,218.423 166.5,219.5C 167.293,219.069 168.127,218.735 169,218.5C 173.433,221.003 178.267,222.17 183.5,222C 187.089,224.631 191.089,225.797 195.5,225.5C 195.351,224.448 195.517,223.448 196,222.5C 197.121,225.873 198.621,229.039 200.5,232C 201.41,233.749 202.743,234.916 204.5,235.5 Z"/></g>
<g><path style="opacity:1" fill="#3b2a32" d="M 270.5,199.5 C 271.658,208.657 271.824,217.991 271,227.5C 270.388,231.366 268.888,234.699 266.5,237.5C 266.167,237.5 265.833,237.5 265.5,237.5C 265.517,235.435 265.85,233.435 266.5,231.5C 267.748,230.666 268.415,229.333 268.5,227.5C 269.116,223.855 269.45,220.188 269.5,216.5C 270.489,211.025 270.822,205.358 270.5,199.5 Z"/></g>
<g><path style="opacity:1" fill="#a7a7aa" d="M 146.5,199.5 C 143.772,202.899 141.439,206.566 139.5,210.5C 134.83,213.501 130.163,216.501 125.5,219.5C 118.196,220.302 110.862,220.635 103.5,220.5C 103.5,219.5 103.5,218.5 103.5,217.5C 100.079,217.482 97.4121,216.149 95.5,213.5C 102.724,216.623 110.057,217.623 117.5,216.5C 118.583,216.539 119.583,216.873 120.5,217.5C 124.016,216.014 127.682,214.847 131.5,214C 136.416,208.915 141.416,204.081 146.5,199.5 Z"/></g>
<g><path style="opacity:1" fill="#a84146" d="M 239.5,203.5 C 239.5,204.833 239.5,206.167 239.5,207.5C 244.629,207.719 244.629,208.386 239.5,209.5C 239.708,211.92 239.374,214.253 238.5,216.5C 237.349,217.731 236.183,217.731 235,216.5C 232.45,218.495 231.95,220.828 233.5,223.5C 237.391,221.786 239.391,223.12 239.5,227.5C 234.475,227.158 229.642,227.492 225,228.5C 224.311,227.643 223.478,226.977 222.5,226.5C 220.125,229.737 217.125,230.737 213.5,229.5C 213.167,231.5 212.833,233.5 212.5,235.5C 211.433,232.771 209.433,231.104 206.5,230.5C 205.037,222.33 205.704,214.33 208.5,206.5C 212.7,205.638 216.867,204.638 221,203.5C 222.226,203.645 223.393,203.978 224.5,204.5C 227.765,202.355 231.265,200.689 235,199.5C 238.263,198.932 239.763,200.266 239.5,203.5 Z"/></g>
<g><path style="opacity:1" fill="#b5a595" d="M 71.5,215.5 C 75.4148,217.196 78.9148,219.529 82,222.5C 82.8045,225.696 82.6378,228.696 81.5,231.5C 81.6641,228.813 81.4974,226.146 81,223.5C 77.1134,221.647 73.9467,218.98 71.5,215.5 Z"/></g>
<g><path style="opacity:1" fill="#fdfdfd" d="M 125.5,219.5 C 126.873,219.343 128.207,219.51 129.5,220C 128.289,220.893 128.289,221.726 129.5,222.5C 131.671,222.273 133.838,221.94 136,221.5C 136.667,222.167 137.333,222.833 138,223.5C 138.971,222.802 140.137,222.802 141.5,223.5C 142.647,223.182 143.481,222.516 144,221.5C 144.346,223.218 144.846,224.885 145.5,226.5C 151.252,228.123 156.919,229.956 162.5,232C 162.167,232.333 161.833,232.667 161.5,233C 163.235,233.651 164.902,233.485 166.5,232.5C 172.606,234.713 178.939,235.88 185.5,236C 188.171,237.001 190.504,238.501 192.5,240.5C 193.086,240.291 193.586,239.957 194,239.5C 196.32,242.016 198.987,243.016 202,242.5C 202.315,245.147 203.482,245.813 205.5,244.5C 208.433,245.805 211.433,246.805 214.5,247.5C 215.833,248.167 217.167,248.833 218.5,249.5C 218.586,250.496 218.252,251.329 217.5,252C 221.389,253.556 225.223,255.056 229,256.5C 229.558,259.934 230.391,263.267 231.5,266.5C 232.675,266.281 233.675,266.614 234.5,267.5C 235.959,270.756 238.126,273.423 241,275.5C 242.666,274.66 242.833,275.16 241.5,277C 242.448,277.483 243.448,277.649 244.5,277.5C 237.888,280.216 230.888,281.549 223.5,281.5C 197.556,284.724 171.556,285.224 145.5,283C 139.631,281.193 133.631,280.359 127.5,280.5C 124.729,280.579 122.063,280.079 119.5,279C 113.069,276.275 107.069,273.109 101.5,269.5C 99.8665,266.203 97.1999,264.536 93.5,264.5C 91.998,262.825 90.6647,260.992 89.5,259C 93.1313,258.794 93.4646,257.627 90.5,255.5C 89.8076,256.025 89.3076,256.692 89,257.5C 85.3603,256.754 81.8603,255.087 78.5,252.5C 79.1047,250.974 80.2714,249.974 82,249.5C 87.4131,250.938 92.4131,249.604 97,245.5C 99.7136,236.967 101.88,228.634 103.5,220.5C 110.862,220.635 118.196,220.302 125.5,219.5 Z"/></g>
<g><path style="opacity:1" fill="#a86467" d="M 202.5,208.5 C 202.085,215.456 202.752,222.289 204.5,229C 204.836,230.03 205.503,230.53 206.5,230.5C 209.598,234.104 212.098,238.104 214,242.5C 215.98,243.749 217.813,245.082 219.5,246.5C 218.127,246.657 216.793,246.49 215.5,246C 211.964,242.296 208.298,238.796 204.5,235.5C 204.008,233.181 203.008,231.181 201.5,229.5C 199.912,222.274 200.245,215.274 202.5,208.5 Z"/></g>
<g><path style="opacity:1" fill="#be8e99" d="M 265.5,199.5 C 266.41,201.019 267.243,202.685 268,204.5C 268.176,208.688 268.676,212.688 269.5,216.5C 269.45,220.188 269.116,223.855 268.5,227.5C 268.415,229.333 267.748,230.666 266.5,231.5C 266.631,230.761 266.464,230.094 266,229.5C 265.722,230.416 265.222,231.082 264.5,231.5C 266.768,220.924 267.102,210.257 265.5,199.5 Z"/></g>
<g><path style="opacity:1" fill="#f5e0ca" d="M 68.5,213.5 C 68.5,213.167 68.5,212.833 68.5,212.5C 72.4786,213.447 76.4786,213.614 80.5,213C 84.3246,215.825 87.8246,218.992 91,222.5C 91.8146,226.389 90.8146,229.722 88,232.5C 87.023,234.74 86.523,237.073 86.5,239.5C 83.1379,239.07 80.3046,240.07 78,242.5C 76.951,240.893 75.451,240.227 73.5,240.5C 73.5,240.167 73.5,239.833 73.5,239.5C 74.2623,237.738 75.5956,236.738 77.5,236.5C 80.324,236.011 81.6574,234.344 81.5,231.5C 82.6378,228.696 82.8045,225.696 82,222.5C 78.9148,219.529 75.4148,217.196 71.5,215.5C 70.5,214.833 69.5,214.167 68.5,213.5 Z"/></g>
<g><path style="opacity:1" fill="#1b120b" d="M 68.5,213.5 C 69.5,214.167 70.5,214.833 71.5,215.5C 73.9467,218.98 77.1134,221.647 81,223.5C 81.4974,226.146 81.6641,228.813 81.5,231.5C 80.1304,233.172 78.7971,234.839 77.5,236.5C 75.5956,236.738 74.2623,237.738 73.5,239.5C 71.7085,239.366 70.0418,239.699 68.5,240.5C 68.8588,238.629 69.8588,237.129 71.5,236C 71.1667,235.667 70.8333,235.333 70.5,235C 72.718,233.233 74.3847,231.067 75.5,228.5C 72.3384,223.505 70.005,218.505 68.5,213.5 Z"/></g>
<g><path style="opacity:1" fill="#b44349" d="M 255.5,238.5 C 255.5,239.167 255.5,239.833 255.5,240.5C 249.16,244.518 242.16,247.185 234.5,248.5C 229.581,246.852 224.581,245.352 219.5,244C 215.857,242.195 213.524,239.362 212.5,235.5C 212.833,233.5 213.167,231.5 213.5,229.5C 217.125,230.737 220.125,229.737 222.5,226.5C 223.478,226.977 224.311,227.643 225,228.5C 229.642,227.492 234.475,227.158 239.5,227.5C 244.833,227.5 250.167,227.5 255.5,227.5C 255.351,228.552 255.517,229.552 256,230.5C 257.523,228.431 258.357,226.097 258.5,223.5C 259.5,223.5 260.5,223.5 261.5,223.5C 260.546,229.048 258.546,234.048 255.5,238.5 Z"/></g>
<g><path style="opacity:1" fill="#6a696e" d="M 5.5,226.5 C 4.29211,229.044 2.29211,230.378 -0.5,230.5C -0.5,230.167 -0.5,229.833 -0.5,229.5C 1.5,228.5 3.5,227.5 5.5,226.5 Z"/></g>
<g><path style="opacity:1" fill="#f9eee0" d="M 81.5,193.5 C 83.6156,198.41 85.7822,203.41 88,208.5C 89.8864,211.242 92.3864,212.909 95.5,213.5C 97.4121,216.149 100.079,217.482 103.5,217.5C 103.5,218.5 103.5,219.5 103.5,220.5C 101.88,228.634 99.7136,236.967 97,245.5C 92.4131,249.604 87.4131,250.938 82,249.5C 80.2714,249.974 79.1047,250.974 78.5,252.5C 78.1667,252.5 77.8333,252.5 77.5,252.5C 77.0269,251.094 76.0269,250.427 74.5,250.5C 71.2769,248.439 68.2769,245.939 65.5,243C 66.056,242.617 66.3893,242.117 66.5,241.5C 68.861,241.326 71.1944,240.993 73.5,240.5C 75.451,240.227 76.951,240.893 78,242.5C 80.3046,240.07 83.1379,239.07 86.5,239.5C 86.523,237.073 87.023,234.74 88,232.5C 90.8146,229.722 91.8146,226.389 91,222.5C 87.8246,218.992 84.3246,215.825 80.5,213C 76.4786,213.614 72.4786,213.447 68.5,212.5C 68.047,210.435 67.047,208.768 65.5,207.5C 65.5,206.167 65.5,204.833 65.5,203.5C 70.0054,199.89 75.3387,199.557 81.5,202.5C 82.3211,199.554 82.3211,196.554 81.5,193.5 Z"/></g>
<g><path style="opacity:1" fill="#bab9be" d="M 20.5,231.5 C 20.586,235.319 19.9193,238.985 18.5,242.5C 18.1667,243.833 17.8333,245.167 17.5,246.5C 12.3222,252.027 8.3222,258.361 5.5,265.5C 3.26321,267.647 1.26321,269.98 -0.5,272.5C -0.5,258.5 -0.5,244.5 -0.5,230.5C 2.29211,230.378 4.29211,229.044 5.5,226.5C 6.47866,224.855 7.812,223.521 9.5,222.5C 13.5011,225.175 17.1677,228.175 20.5,231.5 Z"/></g>
<g><path style="opacity:1" fill="#ae9a8b" d="M 81.5,231.5 C 81.6574,234.344 80.324,236.011 77.5,236.5C 78.7971,234.839 80.1304,233.172 81.5,231.5 Z"/></g>
<g><path style="opacity:1" fill="#656567" d="M 20.5,231.5 C 21.6291,233.628 21.7958,235.961 21,238.5C 20.7996,240.32 19.9663,241.653 18.5,242.5C 19.9193,238.985 20.586,235.319 20.5,231.5 Z"/></g>
<g><path style="opacity:1" fill="#837b75" d="M 73.5,239.5 C 73.5,239.833 73.5,240.167 73.5,240.5C 71.1944,240.993 68.861,241.326 66.5,241.5C 66.8417,240.662 67.5084,240.328 68.5,240.5C 70.0418,239.699 71.7085,239.366 73.5,239.5 Z"/></g>
<g><path style="opacity:1" fill="#6d6b66" d="M 66.5,241.5 C 66.3893,242.117 66.056,242.617 65.5,243C 68.2769,245.939 71.2769,248.439 74.5,250.5C 70.4564,249.969 67.2897,247.969 65,244.5C 64.2748,242.843 64.7748,241.843 66.5,241.5 Z"/></g>
<g><path style="opacity:1" fill="#ae555a" d="M 206.5,230.5 C 209.433,231.104 211.433,232.771 212.5,235.5C 213.524,239.362 215.857,242.195 219.5,244C 224.581,245.352 229.581,246.852 234.5,248.5C 233.903,249.139 233.07,249.472 232,249.5C 227.779,248.569 223.612,247.569 219.5,246.5C 217.813,245.082 215.98,243.749 214,242.5C 212.098,238.104 209.598,234.104 206.5,230.5 Z"/></g>
<g><path style="opacity:1" fill="#423b34" d="M 265.5,237.5 C 265.713,241.91 264.046,245.243 260.5,247.5C 262.186,244.128 263.853,240.795 265.5,237.5 Z"/></g>
<g><path style="opacity:1" fill="#eec6b9" d="M 266.5,231.5 C 265.85,233.435 265.517,235.435 265.5,237.5C 263.853,240.795 262.186,244.128 260.5,247.5C 257.806,249.527 255.473,251.861 253.5,254.5C 253.815,252.774 253.981,251.107 254,249.5C 245.603,251.256 236.77,251.922 227.5,251.5C 224.5,250.833 221.5,250.167 218.5,249.5C 217.167,248.833 215.833,248.167 214.5,247.5C 210.767,243.773 207.434,239.773 204.5,235.5C 208.298,238.796 211.964,242.296 215.5,246C 216.793,246.49 218.127,246.657 219.5,246.5C 221.273,247.892 223.273,249.059 225.5,250C 230.167,250.667 234.833,250.667 239.5,250C 244.365,248.381 249.032,246.381 253.5,244C 254.823,243.184 255.489,242.017 255.5,240.5C 257.09,240.372 258.423,239.705 259.5,238.5C 261.551,236.347 263.218,234.014 264.5,231.5C 265.222,231.082 265.722,230.416 266,229.5C 266.464,230.094 266.631,230.761 266.5,231.5 Z"/></g>
<g><path style="opacity:1" fill="#bc6e67" d="M 255.5,240.5 C 255.489,242.017 254.823,243.184 253.5,244C 249.032,246.381 244.365,248.381 239.5,250C 234.833,250.667 230.167,250.667 225.5,250C 223.273,249.059 221.273,247.892 219.5,246.5C 223.612,247.569 227.779,248.569 232,249.5C 233.07,249.472 233.903,249.139 234.5,248.5C 242.16,247.185 249.16,244.518 255.5,240.5 Z"/></g>
<g><path style="opacity:1" fill="#95918b" d="M 74.5,250.5 C 76.0269,250.427 77.0269,251.094 77.5,252.5C 75.9731,252.573 74.9731,251.906 74.5,250.5 Z"/></g>
<g><path style="opacity:1" fill="#f9f0e7" d="M 218.5,249.5 C 221.5,250.167 224.5,250.833 227.5,251.5C 231.233,252.977 235.233,253.811 239.5,254C 241.905,256.032 241.405,257.532 238,258.5C 235.421,266.578 237.921,269.078 245.5,266C 246.337,264.989 246.67,263.822 246.5,262.5C 247.978,262.762 249.311,262.429 250.5,261.5C 251.869,259.236 252.869,256.903 253.5,254.5C 253.34,256.199 253.506,257.866 254,259.5C 256.353,264.26 260.186,266.26 265.5,265.5C 266.497,265.47 267.164,265.97 267.5,267C 260.985,273.112 253.319,276.612 244.5,277.5C 243.448,277.649 242.448,277.483 241.5,277C 242.833,275.16 242.666,274.66 241,275.5C 238.126,273.423 235.959,270.756 234.5,267.5C 233.675,266.614 232.675,266.281 231.5,266.5C 230.391,263.267 229.558,259.934 229,256.5C 225.223,255.056 221.389,253.556 217.5,252C 218.252,251.329 218.586,250.496 218.5,249.5 Z"/></g>
<g><path style="opacity:1" fill="#31241d" d="M 260.5,247.5 C 259.42,249.045 259.42,250.545 260.5,252C 260.241,253.261 259.574,254.261 258.5,255C 259.833,256 259.833,257 258.5,258C 260.689,258.677 261.022,259.844 259.5,261.5C 260.712,263.923 262.712,264.923 265.5,264.5C 265.5,264.833 265.5,265.167 265.5,265.5C 260.186,266.26 256.353,264.26 254,259.5C 253.506,257.866 253.34,256.199 253.5,254.5C 255.473,251.861 257.806,249.527 260.5,247.5 Z"/></g>
<g><path style="opacity:1" fill="#cccbc9" d="M 77.5,252.5 C 77.8333,252.5 78.1667,252.5 78.5,252.5C 81.8603,255.087 85.3603,256.754 89,257.5C 89.3076,256.692 89.8076,256.025 90.5,255.5C 93.4646,257.627 93.1313,258.794 89.5,259C 90.6647,260.992 91.998,262.825 93.5,264.5C 89.7243,261.772 85.7243,259.272 81.5,257C 79.9586,255.629 78.6253,254.129 77.5,252.5 Z"/></g>
<g><path style="opacity:1" fill="#f1dbc9" d="M 253.5,254.5 C 252.869,256.903 251.869,259.236 250.5,261.5C 249.311,262.429 247.978,262.762 246.5,262.5C 246.67,263.822 246.337,264.989 245.5,266C 237.921,269.078 235.421,266.578 238,258.5C 241.405,257.532 241.905,256.032 239.5,254C 235.233,253.811 231.233,252.977 227.5,251.5C 236.77,251.922 245.603,251.256 254,249.5C 253.981,251.107 253.815,252.774 253.5,254.5 Z"/></g>
<g><path style="opacity:1" fill="#38383b" d="M 17.5,246.5 C 14.8027,250.746 12.9693,255.413 12,260.5C 11.6667,260.167 11.3333,259.833 11,259.5C 9.77011,262.036 7.93677,264.036 5.5,265.5C 8.3222,258.361 12.3222,252.027 17.5,246.5 Z"/></g>
<g><path style="opacity:1" fill="#8e8070" d="M 239.5,258.5 C 245.555,257.942 246.888,260.109 243.5,265C 241.866,265.494 240.199,265.66 238.5,265.5C 238.674,263.139 239.007,260.806 239.5,258.5 Z"/></g>
<g><path style="opacity:1" fill="#a5a3a4" d="M 93.5,264.5 C 97.1999,264.536 99.8665,266.203 101.5,269.5C 98.4887,268.331 95.822,266.664 93.5,264.5 Z"/></g>
<g><path style="opacity:1" fill="#3e3e40" d="M 70.5,264.5 C 70.5,264.833 70.5,265.167 70.5,265.5C 71.2341,266.708 71.5674,268.041 71.5,269.5C 68.7531,269.813 66.0865,269.48 63.5,268.5C 64.3094,266.929 64.6427,265.262 64.5,263.5C 66.6208,263.325 68.6208,263.659 70.5,264.5 Z"/></g>
<g><path style="opacity:1" fill="#959595" d="M 180.5,263.5 C 186.313,263.062 187.98,265.562 185.5,271C 179.797,271.456 178.13,268.956 180.5,263.5 Z"/></g>
<g><path style="opacity:1" fill="#413e42" d="M 49.5,251.5 C 50.7102,253.552 51.7102,255.718 52.5,258C 51.1773,263.114 49.1773,267.948 46.5,272.5C 35.1045,277.282 24.9378,283.949 16,292.5C 15.023,294.74 14.523,297.073 14.5,299.5C 11.1667,299.5 7.83333,299.5 4.5,299.5C 4.33669,297.143 4.50335,294.81 5,292.5C 9.3898,281.652 14.7231,271.319 21,261.5C 26.431,255.372 30.2643,248.372 32.5,240.5C 35.5682,240.547 38.5682,241.047 41.5,242C 44.2935,245.105 46.9602,248.272 49.5,251.5 Z"/></g>
<g><path style="opacity:1" fill="#4c4c4f" d="M 5.5,265.5 C 4.32824,269.658 2.32824,273.325 -0.5,276.5C -0.5,275.167 -0.5,273.833 -0.5,272.5C 1.26321,269.98 3.26321,267.647 5.5,265.5 Z"/></g>
<g><path style="opacity:1" fill="#1a1818" d="M 265.5,237.5 C 265.833,237.5 266.167,237.5 266.5,237.5C 267.714,238.626 268.714,239.959 269.5,241.5C 269.263,244.063 268.763,244.063 268,241.5C 267.598,242.872 267.098,244.205 266.5,245.5C 267.246,246.736 267.579,248.07 267.5,249.5C 268.833,249.5 270.167,249.5 271.5,249.5C 269.777,254.074 268.444,258.741 267.5,263.5C 270.572,263.183 273.572,263.516 276.5,264.5C 275.109,266.936 275.609,267.602 278,266.5C 278.692,267.025 279.192,267.692 279.5,268.5C 278.877,271.167 277.877,273.667 276.5,276C 277.793,276.49 279.127,276.657 280.5,276.5C 276.148,283.542 273.148,291.208 271.5,299.5C 267.167,299.5 262.833,299.5 258.5,299.5C 258.5,298.833 258.5,298.167 258.5,297.5C 259.871,295.064 260.871,292.397 261.5,289.5C 262.167,288.833 262.833,288.167 263.5,287.5C 265.762,283.83 267.429,279.83 268.5,275.5C 270.308,272.108 272.308,268.774 274.5,265.5C 271.572,264.516 268.572,264.183 265.5,264.5C 262.712,264.923 260.712,263.923 259.5,261.5C 261.022,259.844 260.689,258.677 258.5,258C 259.833,257 259.833,256 258.5,255C 259.574,254.261 260.241,253.261 260.5,252C 259.42,250.545 259.42,249.045 260.5,247.5C 264.046,245.243 265.713,241.91 265.5,237.5 Z"/></g>
<g><path style="opacity:1" fill="#b4b4b5" d="M 265.5,265.5 C 265.5,265.167 265.5,264.833 265.5,264.5C 268.572,264.183 271.572,264.516 274.5,265.5C 272.308,268.774 270.308,272.108 268.5,275.5C 267.21,276.058 266.377,277.058 266,278.5C 264.57,281.353 263.737,284.353 263.5,287.5C 262.833,288.167 262.167,288.833 261.5,289.5C 261.5,288.167 261.5,286.833 261.5,285.5C 253.133,287.809 244.8,290.309 236.5,293C 225.527,294.829 214.527,296.329 203.5,297.5C 183.487,297.683 163.487,297.35 143.5,296.5C 138.785,296.494 134.118,295.994 129.5,295C 123.646,292.598 117.646,290.765 111.5,289.5C 111.5,292.833 111.5,296.167 111.5,299.5C 111.167,299.5 110.833,299.5 110.5,299.5C 111.344,291.638 110.011,284.305 106.5,277.5C 105.621,274.299 103.955,271.632 101.5,269.5C 107.069,273.109 113.069,276.275 119.5,279C 122.063,280.079 124.729,280.579 127.5,280.5C 128.23,282.045 129.563,282.878 131.5,283C 157.107,285.462 182.773,286.129 208.5,285C 213.801,284.59 218.801,283.423 223.5,281.5C 230.888,281.549 237.888,280.216 244.5,277.5C 253.319,276.612 260.985,273.112 267.5,267C 267.164,265.97 266.497,265.47 265.5,265.5 Z"/></g>
<g><path style="opacity:1" fill="#444043" d="M 299.5,256.5 C 299.5,270.833 299.5,285.167 299.5,299.5C 290.167,299.5 280.833,299.5 271.5,299.5C 273.148,291.208 276.148,283.542 280.5,276.5C 282.12,271.575 284.954,267.575 289,264.5C 290.349,259.084 293.849,256.417 299.5,256.5 Z"/></g>
<g><path style="opacity:1" fill="#131113" d="M 49.5,251.5 C 51.6365,252.942 53.9698,254.109 56.5,255C 57.1466,256.609 57.98,258.109 59,259.5C 61.1469,258.524 63.3136,258.691 65.5,260C 68.1146,260.612 69.7813,262.112 70.5,264.5C 68.6208,263.659 66.6208,263.325 64.5,263.5C 64.6427,265.262 64.3094,266.929 63.5,268.5C 66.0865,269.48 68.7531,269.813 71.5,269.5C 71.5674,268.041 71.2341,266.708 70.5,265.5C 73.3892,265.999 74.0558,267.499 72.5,270C 66.5685,270.472 60.7351,271.306 55,272.5C 54.1074,271.919 53.1074,271.585 52,271.5C 47.7573,273.704 43.5907,276.038 39.5,278.5C 40.5217,279.354 41.3551,280.354 42,281.5C 42.7247,280.941 43.5581,280.608 44.5,280.5C 47.0164,282.672 50.0164,283.672 53.5,283.5C 53.281,282.325 53.6143,281.325 54.5,280.5C 60.0854,280.791 65.752,280.791 71.5,280.5C 71.5,280.833 71.5,281.167 71.5,281.5C 65.6779,280.933 60.3446,281.933 55.5,284.5C 51.1597,285.502 46.8264,286.669 42.5,288C 39.4279,288.907 37.0945,290.74 35.5,293.5C 33.4048,294.412 31.4048,295.579 29.5,297C 28.7476,297.671 28.4142,298.504 28.5,299.5C 23.8333,299.5 19.1667,299.5 14.5,299.5C 14.523,297.073 15.023,294.74 16,292.5C 24.9378,283.949 35.1045,277.282 46.5,272.5C 49.1773,267.948 51.1773,263.114 52.5,258C 51.7102,255.718 50.7102,253.552 49.5,251.5 Z"/></g>
<g><path style="opacity:1" fill="#4f4d50" d="M 71.5,281.5 C 71.5,281.167 71.5,280.833 71.5,280.5C 77.8421,280.334 84.1754,280.5 90.5,281C 91.7375,281.232 92.7375,281.732 93.5,282.5C 92.1667,282.5 90.8333,282.5 89.5,282.5C 83.69,281.51 77.69,281.177 71.5,281.5 Z"/></g>
<g><path style="opacity:1" fill="#828085" d="M 71.5,281.5 C 77.69,281.177 83.69,281.51 89.5,282.5C 78.1175,282.429 66.7841,283.095 55.5,284.5C 60.3446,281.933 65.6779,280.933 71.5,281.5 Z"/></g>
<g><path style="opacity:1" fill="#e9e9e9" d="M 127.5,280.5 C 133.631,280.359 139.631,281.193 145.5,283C 171.556,285.224 197.556,284.724 223.5,281.5C 218.801,283.423 213.801,284.59 208.5,285C 182.773,286.129 157.107,285.462 131.5,283C 129.563,282.878 128.23,282.045 127.5,280.5 Z"/></g>
<g><path style="opacity:1" fill="#535352" d="M 268.5,275.5 C 267.429,279.83 265.762,283.83 263.5,287.5C 263.737,284.353 264.57,281.353 266,278.5C 266.377,277.058 267.21,276.058 268.5,275.5 Z"/></g>
<g><path style="opacity:1" fill="#a8a6aa" d="M 89.5,282.5 C 90.8333,282.5 92.1667,282.5 93.5,282.5C 93.5,284.833 93.5,287.167 93.5,289.5C 83.4705,291.857 73.4705,294.19 63.5,296.5C 63.5,297.5 63.5,298.5 63.5,299.5C 51.8333,299.5 40.1667,299.5 28.5,299.5C 28.4142,298.504 28.7476,297.671 29.5,297C 31.4048,295.579 33.4048,294.412 35.5,293.5C 38.696,291.986 42.0293,290.653 45.5,289.5C 46.1924,290.025 46.6924,290.692 47,291.5C 49.2206,288.322 52.054,285.988 55.5,284.5C 66.7841,283.095 78.1175,282.429 89.5,282.5 Z"/></g>
<g><path style="opacity:1" fill="#f7f7f7" d="M 261.5,289.5 C 259.345,291.617 258.345,294.284 258.5,297.5C 258.5,298.167 258.5,298.833 258.5,299.5C 237.167,299.5 215.833,299.5 194.5,299.5C 197.5,298.833 200.5,298.167 203.5,297.5C 214.527,296.329 225.527,294.829 236.5,293C 244.8,290.309 253.133,287.809 261.5,285.5C 261.5,286.833 261.5,288.167 261.5,289.5 Z"/></g>
<g><path style="opacity:1" fill="#7e7c80" d="M 55.5,284.5 C 52.054,285.988 49.2206,288.322 47,291.5C 46.6924,290.692 46.1924,290.025 45.5,289.5C 42.0293,290.653 38.696,291.986 35.5,293.5C 37.0945,290.74 39.4279,288.907 42.5,288C 46.8264,286.669 51.1597,285.502 55.5,284.5 Z"/></g>
<g><path style="opacity:1" fill="#f9f8f9" d="M 143.5,296.5 C 146.167,297.5 148.833,298.5 151.5,299.5C 138.167,299.5 124.833,299.5 111.5,299.5C 111.5,296.167 111.5,292.833 111.5,289.5C 117.646,290.765 123.646,292.598 129.5,295C 134.118,295.994 138.785,296.494 143.5,296.5 Z"/></g>
<g><path style="opacity:1" fill="#a4a5a4" d="M 261.5,289.5 C 260.871,292.397 259.871,295.064 258.5,297.5C 258.345,294.284 259.345,291.617 261.5,289.5 Z"/></g>
<g><path style="opacity:1" fill="#7b7b7d" d="M 93.5,282.5 C 94.1174,282.611 94.6174,282.944 95,283.5C 95.4994,288.823 95.666,294.156 95.5,299.5C 84.8333,299.5 74.1667,299.5 63.5,299.5C 63.5,298.5 63.5,297.5 63.5,296.5C 73.4705,294.19 83.4705,291.857 93.5,289.5C 93.5,287.167 93.5,284.833 93.5,282.5 Z"/></g>
<g><path style="opacity:1" fill="#69676a" d="M 106.5,277.5 C 110.011,284.305 111.344,291.638 110.5,299.5C 110.167,299.5 109.833,299.5 109.5,299.5C 109.666,295.486 109.499,291.486 109,287.5C 107.648,284.28 106.814,280.947 106.5,277.5 Z"/></g>
<g><path style="opacity:1" fill="#d9d9db" d="M 143.5,296.5 C 163.487,297.35 183.487,297.683 203.5,297.5C 200.5,298.167 197.5,298.833 194.5,299.5C 180.167,299.5 165.833,299.5 151.5,299.5C 148.833,298.5 146.167,297.5 143.5,296.5 Z"/></g>
</svg>
